<svg width="1474" height="1453" viewBox="0 0 1474 1453" fill="none" xmlns="http://www.w3.org/2000/svg">
<g clip-path="url(#clip0_1016_2)">
<path d="M1474 726.5C1474 1127.73 1144.03 1453 737 1453C329.966 1453 0 1127.73 0 726.5C0 325.265 329.966 0 737 0C1144.03 0 1474 325.265 1474 726.5Z" fill="#FF2E00"/>
<path d="M320.773 667.617C320.086 660.685 317.135 655.299 311.922 651.461C306.708 647.622 299.633 645.703 290.695 645.703C284.622 645.703 279.495 646.562 275.313 648.281C271.13 649.943 267.922 652.263 265.688 655.242C263.51 658.221 262.422 661.602 262.422 665.383C262.307 668.534 262.966 671.284 264.398 673.633C265.888 675.982 267.922 678.016 270.5 679.734C273.078 681.396 276.057 682.857 279.437 684.117C282.818 685.32 286.427 686.352 290.266 687.211L306.078 690.992C313.755 692.711 320.802 695.003 327.219 697.867C333.635 700.732 339.193 704.255 343.891 708.437C348.589 712.62 352.227 717.547 354.805 723.219C357.44 728.891 358.786 735.393 358.844 742.727C358.786 753.497 356.036 762.836 350.594 770.742C345.208 778.591 337.417 784.693 327.219 789.047C317.078 793.344 304.846 795.492 290.523 795.492C276.315 795.492 263.94 793.315 253.398 788.961C242.914 784.607 234.721 778.161 228.82 769.625C222.977 761.031 219.911 750.404 219.625 737.742H255.633C256.034 743.643 257.724 748.57 260.703 752.523C263.74 756.419 267.779 759.37 272.82 761.375C277.919 763.323 283.677 764.297 290.094 764.297C296.396 764.297 301.867 763.38 306.508 761.547C311.206 759.714 314.844 757.164 317.422 753.898C320 750.633 321.289 746.88 321.289 742.641C321.289 738.687 320.115 735.365 317.766 732.672C315.474 729.979 312.094 727.687 307.625 725.797C303.214 723.906 297.799 722.187 291.383 720.641L272.219 715.828C257.38 712.219 245.664 706.576 237.07 698.898C228.477 691.221 224.208 680.88 224.266 667.875C224.208 657.219 227.044 647.909 232.773 639.945C238.56 631.982 246.495 625.766 256.578 621.297C266.661 616.828 278.12 614.594 290.953 614.594C304.016 614.594 315.417 616.828 325.156 621.297C334.953 625.766 342.573 631.982 348.016 639.945C353.458 647.909 356.266 657.133 356.437 667.617H320.773ZM419.795 716.688V793H383.186V617H418.764V684.289H420.311C423.29 676.497 428.102 670.396 434.748 665.984C441.394 661.516 449.73 659.281 459.756 659.281C468.923 659.281 476.915 661.286 483.732 665.297C490.607 669.25 495.936 674.951 499.717 682.398C503.555 689.789 505.446 698.641 505.389 708.953V793H468.779V715.484C468.837 707.349 466.774 701.018 462.592 696.492C458.467 691.966 452.68 689.703 445.232 689.703C440.248 689.703 435.837 690.763 431.998 692.883C428.217 695.003 425.238 698.096 423.061 702.164C420.941 706.174 419.852 711.016 419.795 716.688ZM593.84 795.578C580.491 795.578 568.947 792.742 559.207 787.07C549.525 781.341 542.048 773.378 536.777 763.18C531.507 752.924 528.871 741.036 528.871 727.516C528.871 713.88 531.507 701.964 536.777 691.766C542.048 681.51 549.525 673.547 559.207 667.875C568.947 662.146 580.491 659.281 593.84 659.281C607.189 659.281 618.704 662.146 628.387 667.875C638.126 673.547 645.632 681.51 650.902 691.766C656.173 701.964 658.809 713.88 658.809 727.516C658.809 741.036 656.173 752.924 650.902 763.18C645.632 773.378 638.126 781.341 628.387 787.07C618.704 792.742 607.189 795.578 593.84 795.578ZM594.012 767.219C600.085 767.219 605.155 765.5 609.223 762.063C613.29 758.568 616.355 753.812 618.418 747.797C620.538 741.781 621.598 734.935 621.598 727.258C621.598 719.581 620.538 712.734 618.418 706.719C616.355 700.703 613.29 695.948 609.223 692.453C605.155 688.958 600.085 687.211 594.012 687.211C587.882 687.211 582.725 688.958 578.543 692.453C574.418 695.948 571.296 700.703 569.176 706.719C567.113 712.734 566.082 719.581 566.082 727.258C566.082 734.935 567.113 741.781 569.176 747.797C571.296 753.812 574.418 758.568 578.543 762.063C582.725 765.5 587.882 767.219 594.012 767.219ZM682.613 842.5V661H718.707V683.172H720.34C721.944 679.62 724.264 676.01 727.301 672.344C730.395 668.62 734.405 665.526 739.332 663.063C744.316 660.542 750.504 659.281 757.895 659.281C767.52 659.281 776.4 661.802 784.535 666.844C792.671 671.828 799.173 679.362 804.043 689.445C808.913 699.471 811.348 712.047 811.348 727.172C811.348 741.896 808.97 754.328 804.215 764.469C799.517 774.552 793.1 782.201 784.965 787.414C776.887 792.57 767.835 795.148 757.809 795.148C750.704 795.148 744.66 793.974 739.676 791.625C734.749 789.276 730.71 786.326 727.559 782.773C724.408 779.164 722.001 775.526 720.34 771.859H719.223V842.5H682.613ZM718.449 727C718.449 734.849 719.538 741.695 721.715 747.539C723.892 753.383 727.043 757.937 731.168 761.203C735.293 764.411 740.306 766.016 746.207 766.016C752.165 766.016 757.207 764.383 761.332 761.117C765.457 757.794 768.579 753.211 770.699 747.367C772.876 741.466 773.965 734.677 773.965 727C773.965 719.38 772.905 712.677 770.785 706.891C768.665 701.104 765.543 696.578 761.418 693.312C757.293 690.047 752.223 688.414 746.207 688.414C740.249 688.414 735.207 689.99 731.082 693.141C727.014 696.292 723.892 700.76 721.715 706.547C719.538 712.333 718.449 719.151 718.449 727ZM835.754 842.5V661H871.848V683.172H873.48C875.085 679.62 877.405 676.01 880.441 672.344C883.535 668.62 887.546 665.526 892.473 663.063C897.457 660.542 903.645 659.281 911.035 659.281C920.66 659.281 929.54 661.802 937.676 666.844C945.811 671.828 952.314 679.362 957.184 689.445C962.053 699.471 964.488 712.047 964.488 727.172C964.488 741.896 962.111 754.328 957.355 764.469C952.658 774.552 946.241 782.201 938.105 787.414C930.027 792.57 920.975 795.148 910.949 795.148C903.845 795.148 897.801 793.974 892.816 791.625C887.889 789.276 883.85 786.326 880.699 782.773C877.548 779.164 875.142 775.526 873.48 771.859H872.363V842.5H835.754ZM871.59 727C871.59 734.849 872.678 741.695 874.855 747.539C877.033 753.383 880.184 757.937 884.309 761.203C888.434 764.411 893.447 766.016 899.348 766.016C905.306 766.016 910.348 764.383 914.473 761.117C918.598 757.794 921.72 753.211 923.84 747.367C926.017 741.466 927.105 734.677 927.105 727C927.105 719.38 926.046 712.677 923.926 706.891C921.806 701.104 918.684 696.578 914.559 693.312C910.434 690.047 905.363 688.414 899.348 688.414C893.389 688.414 888.348 689.99 884.223 693.141C880.155 696.292 877.033 700.76 874.855 706.547C872.678 712.333 871.59 719.151 871.59 727ZM988.895 793V661H1025.5V793H988.895ZM1007.29 643.984C1001.84 643.984 997.173 642.18 993.277 638.57C989.439 634.904 987.52 630.521 987.52 625.422C987.52 620.38 989.439 616.055 993.277 612.445C997.173 608.779 1001.84 606.945 1007.29 606.945C1012.73 606.945 1017.37 608.779 1021.21 612.445C1025.1 616.055 1027.05 620.38 1027.05 625.422C1027.05 630.521 1025.1 634.904 1021.21 638.57C1017.37 642.18 1012.73 643.984 1007.29 643.984ZM1091.44 617V793H1054.83V617H1091.44ZM1143.37 842.5C1138.73 842.5 1134.37 842.128 1130.3 841.383C1126.29 840.695 1122.97 839.807 1120.34 838.719L1128.59 811.391C1132.88 812.708 1136.75 813.424 1140.19 813.539C1143.68 813.654 1146.69 812.852 1149.21 811.133C1151.79 809.414 1153.88 806.492 1155.48 802.367L1157.63 796.781L1110.28 661H1148.78L1176.11 757.937H1177.48L1205.07 661H1243.83L1192.52 807.266C1190.06 814.37 1186.71 820.557 1182.47 825.828C1178.29 831.156 1172.99 835.253 1166.57 838.117C1160.15 841.039 1152.42 842.5 1143.37 842.5Z" fill="white"/>
<ellipse cx="737" cy="726.5" rx="737" ry="726.5" fill="#050505" fill-opacity="0.25"/>
</g>
<defs>
<clipPath id="clip0_1016_2">
<rect width="1474" height="1453" fill="white"/>
</clipPath>
</defs>
</svg>
